# xmcd
#
# Track frame offsets: 
#        150
#        17995
#        42517
#        64652
#        85115
#        98677
#        119327
#        138962
#        153142
#
# Disc length: 2225 seconds
#
# Revision: 2
# Processed by: cddbd v1.5PL3 Copyright (c) Steve Scherf et al.
# Submitted via: ExactAudioCopy v0.90b4
#
DISCID=6b08af09
DTITLE=The Charlie Daniels Band - At His Best
DYEAR=1900
DGENRE=Country
TTITLE0=The South's Gonna Do It Again
TTITLE1=Reflections
TTITLE2=High Lonesome
TTITLE3=Damn Good Cowboy
TTITLE4=Texas
TTITLE5=Tennessee
TTITLE6=I'll Always Remember That Song
TTITLE7=Indian Man
TTITLE8=Orange Blossom Special
EXTD=
EXTT0=
EXTT1=
EXTT2=
EXTT3=
EXTT4=
EXTT5=
EXTT6=
EXTT7=
EXTT8=
PLAYORDER=
